REM DIRINDEX 1\2\5,1\2\6,1\2\7,1\2\8,1\3\9,1\3\10,1\3\11,1\4\12,1\4\13,1\4\14,1\4\15,1\4\16
REM DIRNAME folder01,folder02,folder03,folder04,folder05,folder06,folder07,folder08,folder09,folder10,folder11,folder12,folder13,folder14,folder15,folder16
TITLE ""
FILE "1200_sec01_0201_0210.mp3" MP3
  TRACK 01 AUDIO
    TITLE "0:"
    INDEX 01 00:00:00
  TRACK 02 AUDIO
    TITLE "16:cjc034_04435"
    INDEX 01 00:03:19
  TRACK 03 AUDIO
    TITLE "0:"
    INDEX 01 00:04:50
  TRACK 04 AUDIO
    TITLE "16:cjc034_04436"
    INDEX 01 00:05:22
  TRACK 05 AUDIO
    TITLE "0:"
    INDEX 01 00:07:62
  TRACK 06 AUDIO
    TITLE "12:cjc034_04437"
    INDEX 01 00:08:64
  TRACK 07 AUDIO
    TITLE "0:"
    INDEX 01 00:10:31
  TRACK 08 AUDIO
    TITLE "13:cjc034_04438"
    INDEX 01 00:10:63
  TRACK 09 AUDIO
    TITLE "0:"
    INDEX 01 00:12:46
  TRACK 10 AUDIO
    TITLE "14:cjc034_04439"
    INDEX 01 00:13:04
  TRACK 11 AUDIO
    TITLE "0:"
    INDEX 01 00:14:43
  TRACK 12 AUDIO
    TITLE "15:cjc034_04440"
    INDEX 01 00:15:05
  TRACK 13 AUDIO
    TITLE "0:"
    INDEX 01 00:19:44
  TRACK 14 AUDIO
    TITLE "12:cjc034_04441"
    INDEX 01 00:21:02
  TRACK 15 AUDIO
    TITLE "0:"
    INDEX 01 00:22:27
  TRACK 16 AUDIO
    TITLE "13:cjc034_04442"
    INDEX 01 00:22:60
  TRACK 17 AUDIO
    TITLE "0:"
    INDEX 01 00:26:38
  TRACK 18 AUDIO
    TITLE "14:cjc034_04443"
    INDEX 01 00:26:69
  TRACK 19 AUDIO
    TITLE "0:"
    INDEX 01 00:28:21
  TRACK 20 AUDIO
    TITLE "15:cjc034_04444"
    INDEX 01 00:28:53
  TRACK 21 AUDIO
    TITLE "0:"
    INDEX 01 00:31:51
  TRACK 22 AUDIO
    TITLE "12:cjc034_04445"
    INDEX 01 00:33:11
  TRACK 23 AUDIO
    TITLE "0:"
    INDEX 01 00:34:73
  TRACK 24 AUDIO
    TITLE "13:cjc034_04446"
    INDEX 01 00:35:33
  TRACK 25 AUDIO
    TITLE "0:"
    INDEX 01 00:39:05
  TRACK 26 AUDIO
    TITLE "14:cjc034_04447"
    INDEX 01 00:39:39
  TRACK 27 AUDIO
    TITLE "0:"
    INDEX 01 00:41:26
  TRACK 28 AUDIO
    TITLE "15:cjc034_04448"
    INDEX 01 00:41:61
  TRACK 29 AUDIO
    TITLE "0:"
    INDEX 01 00:45:24
  TRACK 30 AUDIO
    TITLE "12:cjc034_04449"
    INDEX 01 00:46:60
  TRACK 31 AUDIO
    TITLE "0:"
    INDEX 01 00:48:08
  TRACK 32 AUDIO
    TITLE "13:cjc034_04450"
    INDEX 01 00:48:42
  TRACK 33 AUDIO
    TITLE "0:"
    INDEX 01 00:50:50
  TRACK 34 AUDIO
    TITLE "14:cjc034_04451"
    INDEX 01 00:51:09
  TRACK 35 AUDIO
    TITLE "0:"
    INDEX 01 00:52:30
  TRACK 36 AUDIO
    TITLE "15:cjc034_04452"
    INDEX 01 00:52:65
  TRACK 37 AUDIO
    TITLE "0:"
    INDEX 01 00:56:29
  TRACK 38 AUDIO
    TITLE "12:cjc034_04453"
    INDEX 01 00:57:62
  TRACK 39 AUDIO
    TITLE "0:"
    INDEX 01 00:58:73
  TRACK 40 AUDIO
    TITLE "13:cjc034_04454"
    INDEX 01 00:59:32
  TRACK 41 AUDIO
    TITLE "0:"
    INDEX 01 01:02:36
  TRACK 42 AUDIO
    TITLE "14:cjc034_04455"
    INDEX 01 01:02:71
  TRACK 43 AUDIO
    TITLE "0:"
    INDEX 01 01:04:07
  TRACK 44 AUDIO
    TITLE "15:cjc034_04456"
    INDEX 01 01:04:39
  TRACK 45 AUDIO
    TITLE "0:"
    INDEX 01 01:08:17
  TRACK 46 AUDIO
    TITLE "12:cjc034_04457"
    INDEX 01 01:09:52
  TRACK 47 AUDIO
    TITLE "0:"
    INDEX 01 01:11:19
  TRACK 48 AUDIO
    TITLE "13:cjc034_04458"
    INDEX 01 01:11:51
  TRACK 49 AUDIO
    TITLE "0:"
    INDEX 01 01:13:28
  TRACK 50 AUDIO
    TITLE "14:cjc034_04459"
    INDEX 01 01:13:61
  TRACK 51 AUDIO
    TITLE "0:"
    INDEX 01 01:15:27
  TRACK 52 AUDIO
    TITLE "15:cjc034_04460"
    INDEX 01 01:15:60
  TRACK 53 AUDIO
    TITLE "0:"
    INDEX 01 01:19:50
  TRACK 54 AUDIO
    TITLE "12:cjc034_04461"
    INDEX 01 01:21:08
  TRACK 55 AUDIO
    TITLE "0:"
    INDEX 01 01:22:54
  TRACK 56 AUDIO
    TITLE "13:cjc034_04462"
    INDEX 01 01:23:11
  TRACK 57 AUDIO
    TITLE "0:"
    INDEX 01 01:24:12
  TRACK 58 AUDIO
    TITLE "14:cjc034_04463"
    INDEX 01 01:24:43
  TRACK 59 AUDIO
    TITLE "0:"
    INDEX 01 01:26:13
  TRACK 60 AUDIO
    TITLE "15:cjc034_04464"
    INDEX 01 01:26:48
  TRACK 61 AUDIO
    TITLE "0:"
    INDEX 01 01:31:18
  TRACK 62 AUDIO
    TITLE "12:cjc034_04465"
    INDEX 01 01:32:53
  TRACK 63 AUDIO
    TITLE "0:"
    INDEX 01 01:34:01
  TRACK 64 AUDIO
    TITLE "13:cjc034_04466"
    INDEX 01 01:34:34
  TRACK 65 AUDIO
    TITLE "0:"
    INDEX 01 01:36:13
  TRACK 66 AUDIO
    TITLE "14:cjc034_04467"
    INDEX 01 01:36:48
  TRACK 67 AUDIO
    TITLE "0:"
    INDEX 01 01:37:73
  TRACK 68 AUDIO
    TITLE "15:cjc034_04468"
    INDEX 01 01:38:30
  TRACK 69 AUDIO
    TITLE "0:"
    INDEX 01 01:41:73
  TRACK 70 AUDIO
    TITLE "12:cjc034_04469"
    INDEX 01 01:43:33
  TRACK 71 AUDIO
    TITLE "0:"
    INDEX 01 01:45:30
  TRACK 72 AUDIO
    TITLE "13:cjc034_04470"
    INDEX 01 01:45:63
  TRACK 73 AUDIO
    TITLE "0:"
    INDEX 01 01:47:27
  TRACK 74 AUDIO
    TITLE "14:cjc034_04471"
    INDEX 01 01:47:64
  TRACK 75 AUDIO
    TITLE "0:"
    INDEX 01 01:49:59
  TRACK 76 AUDIO
    TITLE "15:cjc034_04472"
    INDEX 01 01:50:19
  TRACK 77 AUDIO
    TITLE "0:"
    INDEX 01 01:54:37
  TRACK 78 AUDIO
    TITLE "12:cjc034_04473"
    INDEX 01 01:55:71
  TRACK 79 AUDIO
    TITLE "0:"
    INDEX 01 01:57:23
  TRACK 80 AUDIO
    TITLE "13:cjc034_04474"
    INDEX 01 01:57:51
  TRACK 81 AUDIO
    TITLE "0:"
    INDEX 01 01:59:34
  TRACK 82 AUDIO
    TITLE "14:cjc034_04475"
    INDEX 01 01:59:69
  TRACK 83 AUDIO
    TITLE "0:"
    INDEX 01 02:01:17
  TRACK 84 AUDIO
    TITLE "15:cjc034_04476"
    INDEX 01 02:01:48
  TRACK 85 AUDIO
    TITLE "0:"
    INDEX 01 02:06:30
